<svg width="1087" height="403" viewBox="0 0 1087 403" fill="none" xmlns="http://www.w3.org/2000/svg">
<path d="M14.3469 402.339V299" stroke="#7D7D7D" stroke-linejoin="round"/>
<path d="M0.682129 308.136H28.0111" stroke="#7D7D7D" stroke-linejoin="round"/>
<path d="M100.687 402.339V299" stroke="#7D7D7D" stroke-linejoin="round"/>
<path d="M87.021 308.136H114.351" stroke="#7D7D7D" stroke-linejoin="round"/>
<path d="M14.2771 308.137C19.3961 321.685 72.0841 336.137 100.687 308.137" stroke="#7D7D7D" stroke-linejoin="round"/>
<path d="M23 208.5V198.5" stroke="black" stroke-width="0.8" stroke-linecap="round"/>
<path d="M43 208.5V198.5" stroke="black" stroke-width="0.8" stroke-linecap="round"/>
<path d="M43 201.5H23" stroke="black" stroke-width="0.8" stroke-linecap="round"/>
<path d="M33 202V192" stroke="black" stroke-width="0.8" stroke-linecap="round"/>
<path d="M7 258V264.5" stroke="white" stroke-linecap="round"/>
<path d="M50 258V264.5" stroke="white" stroke-linecap="round"/>
<path d="M18 258V264.5" stroke="white" stroke-linecap="round"/>
<path d="M61 258V264.5" stroke="white" stroke-linecap="round"/>
<path fill-rule="evenodd" clip-rule="evenodd" d="M0.638904 256.588L21.9059 209.588C22.0679 209.23 22.4239 209 22.8169 209H43.1829C43.5759 209 43.9319 209.23 44.0939 209.588L65.3609 256.588C65.6599 257.25 65.1759 258 64.4499 258H39.8679C38.2399 255.785 35.6159 254.348 32.6559 254.348C29.6959 254.348 27.0719 255.785 25.4429 258H1.5499C0.8229 258 0.338904 257.25 0.638904 256.588Z" fill="white"/>
<path d="M39.8681 258L39.4651 258.296L39.6151 258.5H39.8681V258ZM25.4431 258V258.5H25.6961L25.8461 258.296L25.4431 258ZM21.4501 209.382L0.18308 256.382L1.09408 256.794L22.3611 209.794L21.4501 209.382ZM22.8171 208.5C22.2281 208.5 21.6931 208.845 21.4501 209.382L22.3611 209.794C22.4421 209.615 22.6211 209.5 22.8171 209.5V208.5ZM43.1831 208.5H22.8171V209.5H43.1831V208.5ZM44.5491 209.382C44.3071 208.845 43.7721 208.5 43.1831 208.5V209.5C43.3791 209.5 43.5571 209.615 43.6381 209.794L44.5491 209.382ZM65.8161 256.382L44.5491 209.382L43.6381 209.794L64.9051 256.794L65.8161 256.382ZM64.4501 258.5C65.5401 258.5 66.2661 257.375 65.8161 256.382L64.9051 256.794C65.0551 257.125 64.8131 257.5 64.4501 257.5V258.5ZM39.8681 258.5H64.4501V257.5H39.8681V258.5ZM32.6561 254.848C35.4501 254.848 37.9271 256.204 39.4651 258.296L40.2711 257.704C38.5531 255.366 35.7811 253.848 32.6561 253.848V254.848ZM25.8461 258.296C27.3841 256.204 29.8621 254.848 32.6561 254.848V253.848C29.5301 253.848 26.7591 255.366 25.0401 257.704L25.8461 258.296ZM1.55008 258.5H25.4431V257.5H1.55008V258.5ZM0.18308 256.382C-0.26592 257.375 0.460085 258.5 1.55008 258.5V257.5C1.18708 257.5 0.945076 257.125 1.09408 256.794L0.18308 256.382Z" fill="#1F1F1F"/>
<path fill-rule="evenodd" clip-rule="evenodd" d="M66.606 257.453H0V402.002H66.606V257.453ZM33 364C23.611 364 16 371.611 16 381V402H50V381C50 371.611 42.389 364 33 364Z" fill="#CD2026"/>
<path d="M22 308.873C22 305.88 24.427 303.453 27.42 303.453C30.413 303.453 32.84 305.88 32.84 308.873V348.62H22V308.873Z" fill="#A70B11"/>
<path d="M32.8401 308.873C32.8401 305.88 35.2661 303.453 38.2601 303.453C41.2531 303.453 43.6801 305.88 43.6801 308.873V348.62H32.8401V308.873Z" fill="#A70B11"/>
<path d="M22 318.099V308.421C22 305.428 24.427 303.001 27.42 303.001C30.413 303.001 32.84 305.428 32.84 308.421V318.121" stroke="white"/>
<path d="M43.6801 317.76V308.421C43.6801 305.428 41.2531 303.001 38.2601 303.001C35.2661 303.001 32.8401 305.428 32.8401 308.421V318.121" stroke="white"/>
<path d="M46 338.5H21C20.7239 338.5 20.5 338.724 20.5 339V348C20.5 348.276 20.7239 348.5 21 348.5H46C46.2761 348.5 46.5 348.276 46.5 348V339C46.5 338.724 46.2761 338.5 46 338.5Z" stroke="white" stroke-linejoin="round"/>
<path d="M24.5 338.5H28.5V348.5H24.5V338.5Z" stroke="white"/>
<path d="M32.5 338.5H36.5V348.5H32.5V338.5Z" stroke="white"/>
<path d="M42 338.5H46C46.2761 338.5 46.5 338.724 46.5 339V348C46.5 348.276 46.2761 348.5 46 348.5H42C41.7239 348.5 41.5 348.276 41.5 348V339C41.5 338.724 41.7239 338.5 42 338.5Z" stroke="white"/>
<path d="M31 295.556C31.333 295.222 31.935 293.623 32.5 293.057C32.999 292.556 33.497 295.541 33.996 295.556C34.053 295.556 34.06 295.557 34 295.557C33.999 295.557 33.997 295.556 33.996 295.556C33.671 295.556 31.709 295.556 31 295.556Z" fill="white"/>
<path d="M21 318.555V308.055C21 301.703 26.149 296.555 32.5 296.555C38.851 296.555 44 301.703 44 308.055V318.555" stroke="white" stroke-width="3" stroke-linejoin="round"/>
<path d="M24 247.211C24 242.124 28.124 238 33.211 238H33.789C38.876 238 43 242.124 43 247.211V266H24V247.211Z" fill="#1F1F1F"/>
<path d="M25 247.5C25 242.806 28.806 239 33.5 239C38.194 239 42 242.806 42 247.5V265H25V247.5Z" fill="white"/>
<path d="M1043 208.5V198.5" stroke="black" stroke-width="0.8" stroke-linecap="round"/>
<path d="M1063 208.5V198.5" stroke="black" stroke-width="0.8" stroke-linecap="round"/>
<path d="M1063 201.5H1043" stroke="black" stroke-width="0.8" stroke-linecap="round"/>
<path d="M1053 202V192" stroke="black" stroke-width="0.8" stroke-linecap="round"/>
<path d="M1027 258V264.5" stroke="white" stroke-linecap="round"/>
<path d="M1070 258V264.5" stroke="white" stroke-linecap="round"/>
<path d="M1038 258V264.5" stroke="white" stroke-linecap="round"/>
<path d="M1081 258V264.5" stroke="white" stroke-linecap="round"/>
<path fill-rule="evenodd" clip-rule="evenodd" d="M1020.64 256.588L1041.91 209.588C1042.07 209.23 1042.42 209 1042.82 209H1063.18C1063.58 209 1063.93 209.23 1064.09 209.588L1085.36 256.588C1085.66 257.25 1085.18 258 1084.45 258H1059.87C1058.24 255.785 1055.62 254.348 1052.66 254.348C1049.7 254.348 1047.07 255.785 1045.44 258H1021.55C1020.82 258 1020.34 257.25 1020.64 256.588Z" fill="white"/>
<path d="M1059.87 258L1059.47 258.296L1059.62 258.5H1059.87V258ZM1045.44 258V258.5H1045.7L1045.85 258.296L1045.44 258ZM1041.45 209.382L1020.18 256.382L1021.09 256.794L1042.36 209.794L1041.45 209.382ZM1042.82 208.5C1042.23 208.5 1041.69 208.845 1041.45 209.382L1042.36 209.794C1042.44 209.615 1042.62 209.5 1042.82 209.5V208.5ZM1063.18 208.5H1042.82V209.5H1063.18V208.5ZM1064.55 209.382C1064.31 208.845 1063.77 208.5 1063.18 208.5V209.5C1063.38 209.5 1063.56 209.615 1063.64 209.794L1064.55 209.382ZM1085.82 256.382L1064.55 209.382L1063.64 209.794L1084.91 256.794L1085.82 256.382ZM1084.45 258.5C1085.54 258.5 1086.27 257.375 1085.82 256.382L1084.91 256.794C1085.06 257.125 1084.81 257.5 1084.45 257.5V258.5ZM1059.87 258.5H1084.45V257.5H1059.87V258.5ZM1052.66 254.848C1055.45 254.848 1057.93 256.204 1059.47 258.296L1060.27 257.704C1058.55 255.366 1055.78 253.848 1052.66 253.848V254.848ZM1045.85 258.296C1047.38 256.204 1049.86 254.848 1052.66 254.848V253.848C1049.53 253.848 1046.76 255.366 1045.04 257.704L1045.85 258.296ZM1021.55 258.5H1045.44V257.5H1021.55V258.5ZM1020.18 256.382C1019.73 257.375 1020.46 258.5 1021.55 258.5V257.5C1021.19 257.5 1020.94 257.125 1021.09 256.794L1020.18 256.382Z" fill="#1F1F1F"/>
<path fill-rule="evenodd" clip-rule="evenodd" d="M1086.61 257.453H1020V402.002H1086.61V257.453ZM1053 364C1043.61 364 1036 371.611 1036 381V402H1070V381C1070 371.611 1062.39 364 1053 364Z" fill="#CD2026"/>
<path d="M1042 308.873C1042 305.88 1044.43 303.453 1047.42 303.453C1050.41 303.453 1052.84 305.88 1052.84 308.873V348.62H1042V308.873Z" fill="#A70B11"/>
<path d="M1052.84 308.873C1052.84 305.88 1055.27 303.453 1058.26 303.453C1061.25 303.453 1063.68 305.88 1063.68 308.873V348.62H1052.84V308.873Z" fill="#A70B11"/>
<path d="M1042 318.099V308.421C1042 305.428 1044.43 303.001 1047.42 303.001C1050.41 303.001 1052.84 305.428 1052.84 308.421V318.121" stroke="white"/>
<path d="M1063.68 317.76V308.421C1063.68 305.428 1061.25 303.001 1058.26 303.001C1055.27 303.001 1052.84 305.428 1052.84 308.421V318.121" stroke="white"/>
<path d="M1066 338.5H1041C1040.72 338.5 1040.5 338.724 1040.5 339V348C1040.5 348.276 1040.72 348.5 1041 348.5H1066C1066.28 348.5 1066.5 348.276 1066.5 348V339C1066.5 338.724 1066.28 338.5 1066 338.5Z" stroke="white" stroke-linejoin="round"/>
<path d="M1044.5 338.5H1048.5V348.5H1044.5V338.5Z" stroke="white"/>
<path d="M1052.5 338.5H1056.5V348.5H1052.5V338.5Z" stroke="white"/>
<path d="M1062 338.5H1066C1066.28 338.5 1066.5 338.724 1066.5 339V348C1066.5 348.276 1066.28 348.5 1066 348.5H1062C1061.72 348.5 1061.5 348.276 1061.5 348V339C1061.5 338.724 1061.72 338.5 1062 338.5Z" stroke="white"/>
<path d="M1051 295.556C1051.33 295.222 1051.94 293.623 1052.5 293.057C1053 292.556 1053.5 295.541 1054 295.556C1054.05 295.556 1054.06 295.557 1054 295.557V295.556C1053.67 295.556 1051.71 295.556 1051 295.556Z" fill="white"/>
<path d="M1041 318.555V308.055C1041 301.703 1046.15 296.555 1052.5 296.555C1058.85 296.555 1064 301.703 1064 308.055V318.555" stroke="white" stroke-width="3" stroke-linejoin="round"/>
<path d="M1044 247.211C1044 242.124 1048.12 238 1053.21 238H1053.79C1058.88 238 1063 242.124 1063 247.211V266H1044V247.211Z" fill="#1F1F1F"/>
<path d="M1045 247.5C1045 242.806 1048.81 239 1053.5 239C1058.19 239 1062 242.806 1062 247.5V265H1045V247.5Z" fill="white"/>
<path d="M501.5 100.5V45" stroke="#1F1F1F" stroke-linecap="round"/>
<path d="M533.5 35.5V25.5" stroke="#1F1F1F" stroke-linecap="round"/>
<path d="M553.5 35.5V25.5" stroke="#1F1F1F" stroke-linecap="round"/>
<path d="M553.5 28.5H533.5" stroke="#1F1F1F" stroke-linecap="round"/>
<path d="M543.5 28.5V1" stroke="#1F1F1F" stroke-linecap="round"/>
<path d="M585.5 101V45.5" stroke="#1F1F1F" stroke-linecap="round"/>
<path d="M585.5 62.5H501.5" stroke="#1F1F1F" stroke-linecap="round"/>
<path d="M533.815 34L502.293 100H584.707L553.185 34H533.815Z" fill="white" stroke="#1F1F1F"/>
<path fill-rule="evenodd" clip-rule="evenodd" d="M585.5 100.5H501.5V401.5H524.5V356.5C524.5 346.559 532.559 338.5 542.5 338.5C552.441 338.5 560.5 346.559 560.5 356.5V401.5H585.5V100.5Z" fill="#CD2026"/>
<path d="M534.212 94.437H526.5V121.5H561.5V94.437H554.085L544.297 78.5L534.212 94.437Z" fill="#CD2026" stroke="#A70B11"/>
<path d="M543.5 116.5C549.023 116.5 553.5 112.023 553.5 106.5C553.5 100.977 549.023 96.5 543.5 96.5C537.977 96.5 533.5 100.977 533.5 106.5C533.5 112.023 537.977 116.5 543.5 116.5Z" fill="white"/>
<path d="M562 121H526V124H562V121Z" fill="white"/>
<path d="M520.5 177.5V167C520.5 160.649 525.649 155.5 532 155.5C538.351 155.5 543.5 160.649 543.5 167V177.5" stroke="white" stroke-width="3" stroke-linejoin="round"/>
<path d="M566.5 178V167.5C566.5 161.149 561.351 156 555 156C548.649 156 543.5 161.149 543.5 167.5V178" stroke="white" stroke-width="3" stroke-linejoin="round"/>
<path d="M552 124H535V132.958L539.463 136.105V147H547.75V136.105L552 132.958V124Z" fill="#A70B11"/>
<path fill-rule="evenodd" clip-rule="evenodd" d="M541.2 146.5H546.2V149.5H545.2V158.5H546.2V161.5H541.2V158.5H542.2V149.5H541.2V146.5Z" fill="#EBEBEB"/>
<path d="M521.5 167.818C521.5 164.825 523.927 162.398 526.92 162.398C529.913 162.398 532.34 164.825 532.34 167.818V207.565H521.5V167.818Z" fill="#A70B11"/>
<path d="M532.34 167.818C532.34 164.825 534.766 162.398 537.76 162.398C540.753 162.398 543.18 164.825 543.18 167.818V207.565H532.34V167.818Z" fill="#A70B11"/>
<path d="M521.5 177.52V167.82C521.5 164.827 523.927 162.4 526.92 162.4C529.913 162.4 532.34 164.827 532.34 167.82V177.52" stroke="white"/>
<path d="M543.18 178.001V168.164C543.18 165.17 540.753 162.744 537.76 162.744C534.766 162.744 532.34 165.17 532.34 168.164V177.863" stroke="white"/>
<path d="M532.34 173.238V188.244V207.565" stroke="white"/>
<path d="M544.5 167.92C544.5 164.927 546.927 162.5 549.92 162.5C552.913 162.5 555.34 164.927 555.34 167.92V207.667H544.5V167.92Z" fill="#A70B11"/>
<path d="M555.34 167.92C555.34 164.927 557.766 162.5 560.76 162.5C563.753 162.5 566.18 164.927 566.18 167.92V207.667H555.34V167.92Z" fill="#A70B11"/>
<path d="M544.5 178.001V167.921C544.5 164.928 546.927 162.501 549.92 162.501C552.913 162.501 555.34 164.928 555.34 167.921V177.621" stroke="white"/>
<path d="M566.18 178.001V168.265C566.18 165.272 563.753 162.845 560.76 162.845C557.766 162.845 555.34 165.272 555.34 168.265V177.965" stroke="white"/>
<path d="M555.34 173.34V188.346V207.667" stroke="white"/>
<path d="M567.5 199H520.5C520.224 199 520 199.224 520 199.5V207.5C520 207.776 520.224 208 520.5 208H567.5C567.776 208 568 207.776 568 207.5V199.5C568 199.224 567.776 199 567.5 199Z" stroke="white" stroke-linejoin="round"/>
<path d="M523.5 199H520.5C520.224 199 520 199.224 520 199.5V207.5C520 207.776 520.224 208 520.5 208H523.5C523.776 208 524 207.776 524 207.5V199.5C524 199.224 523.776 199 523.5 199Z" stroke="white"/>
<path d="M524 199H528V208H524V199Z" stroke="white"/>
<path d="M532.5 199H536.5V208H532.5V199Z" stroke="white"/>
<path d="M527.5 208.5V213" stroke="white" stroke-linecap="round"/>
<path d="M536 208.5V213" stroke="white" stroke-linecap="round"/>
<path d="M545 208.5V213" stroke="white" stroke-linecap="round"/>
<path d="M553 208.5V213" stroke="white" stroke-linecap="round"/>
<path d="M561 208.5V213" stroke="white" stroke-linecap="round"/>
<path d="M541 199H545V208H541V199Z" stroke="white"/>
<path d="M551 199H555V208H551V199Z" stroke="white"/>
<path d="M520.5 277.5V267C520.5 260.649 525.649 255.5 532 255.5C538.351 255.5 543.5 260.649 543.5 267V277.5" stroke="white" stroke-width="3" stroke-linejoin="round"/>
<path d="M566.5 278V267.5C566.5 261.149 561.351 256 555 256C548.649 256 543.5 261.149 543.5 267.5V278" stroke="white" stroke-width="3" stroke-linejoin="round"/>
<path d="M521.5 267.818C521.5 264.825 523.927 262.398 526.92 262.398C529.913 262.398 532.34 264.825 532.34 267.818V307.565H521.5V267.818Z" fill="#A70B11"/>
<path d="M532.34 267.818C532.34 264.825 534.766 262.398 537.76 262.398C540.753 262.398 543.18 264.825 543.18 267.818V307.565H532.34V267.818Z" fill="#A70B11"/>
<path d="M521.5 277.52V267.82C521.5 264.827 523.927 262.4 526.92 262.4C529.913 262.4 532.34 264.827 532.34 267.82V277.52" stroke="white"/>
<path d="M543.18 278.001V268.164C543.18 265.17 540.753 262.744 537.76 262.744C534.766 262.744 532.34 265.17 532.34 268.164V277.863" stroke="white"/>
<path d="M532.34 273.238V288.244V307.565" stroke="white"/>
<path d="M544.5 267.92C544.5 264.927 546.927 262.5 549.92 262.5C552.913 262.5 555.34 264.927 555.34 267.92V307.667H544.5V267.92Z" fill="#A70B11"/>
<path d="M555.34 267.92C555.34 264.927 557.766 262.5 560.76 262.5C563.753 262.5 566.18 264.927 566.18 267.92V307.667H555.34V267.92Z" fill="#A70B11"/>
<path d="M544.5 278.001V267.921C544.5 264.928 546.927 262.501 549.92 262.501C552.913 262.501 555.34 264.928 555.34 267.921V277.621" stroke="white"/>
<path d="M566.18 278.001V268.265C566.18 265.272 563.753 262.845 560.76 262.845C557.766 262.845 555.34 265.272 555.34 268.265V277.965" stroke="white"/>
<path d="M555.34 273.34V288.346V307.667" stroke="white"/>
<path d="M567.5 299H520.5C520.224 299 520 299.224 520 299.5V307.5C520 307.776 520.224 308 520.5 308H567.5C567.776 308 568 307.776 568 307.5V299.5C568 299.224 567.776 299 567.5 299Z" stroke="white" stroke-linejoin="round"/>
<path d="M524 299H528V308H524V299Z" stroke="white"/>
<path d="M532.5 299H536.5V308H532.5V299Z" stroke="white"/>
<path d="M541 299H545V308H541V299Z" stroke="white"/>
<path d="M551 299H555V308H551V299Z" stroke="white"/>
<path d="M560 299H564V308H560V299Z" stroke="white"/>
<path d="M530.5 254.501C530.833 254.168 531.435 252.569 532 252.002C532.499 251.501 532.997 254.487 533.496 254.502C533.553 254.502 533.56 254.502 533.5 254.502C533.499 254.502 533.497 254.502 533.496 254.502C533.171 254.502 531.209 254.501 530.5 254.501Z" fill="white"/>
<path d="M553.5 255.056C553.833 254.722 554.435 253.123 555 252.557C555.499 252.056 555.997 255.041 556.496 255.056C556.553 255.056 556.56 255.057 556.5 255.057C556.499 255.057 556.497 255.056 556.496 255.056C556.171 255.056 554.209 255.056 553.5 255.056Z" fill="white"/>
<path d="M543.5 107.5V103" stroke="#1F1F1F" stroke-linecap="round"/>
<path d="M545.5 107.5H543.5" stroke="#1F1F1F" stroke-linecap="round"/>
<path fill-rule="evenodd" clip-rule="evenodd" d="M501.838 290H66.532V402.122H78.695V372.111C78.695 367.278 82.613 363.36 87.447 363.36H91.167C96.001 363.36 99.919 367.278 99.919 372.111V402.122H125.154V372.111C125.154 367.278 129.072 363.36 133.905 363.36H137.626C142.459 363.36 146.377 367.278 146.377 372.111V402.122H171.613V372.111C171.613 367.278 175.531 363.36 180.364 363.36H184.085C188.919 363.36 192.837 367.278 192.837 372.111V402.122H218.072V372.111C218.072 367.278 221.99 363.36 226.824 363.36H230.545C235.378 363.36 239.296 367.278 239.296 372.111V402.122H264.531V372.111C264.531 367.278 268.449 363.36 273.282 363.36H277.003C281.836 363.36 285.755 367.278 285.755 372.111V402.122H310.99V372.111C310.99 367.278 314.908 363.36 319.742 363.36H323.462C328.296 363.36 332.214 367.278 332.214 372.111V402.122H357.45V372.111C357.45 367.278 361.368 363.36 366.201 363.36H369.922C374.755 363.36 378.673 367.278 378.673 372.111V402.122H403.909V372.111C403.909 367.278 407.827 363.36 412.66 363.36H416.381C421.214 363.36 425.132 367.278 425.132 372.111V402.122H450.369V372.111C450.369 367.278 454.287 363.36 459.12 363.36H462.841C467.674 363.36 471.592 367.278 471.592 372.111V402.122H501.838V290Z" fill="#A70B11"/>
<path d="M501.839 342.363H66.533V346.057H501.839V342.363Z" fill="white"/>
<path d="M78.696 318.511C78.696 313.678 82.614 309.76 87.448 309.76H91.169C96.002 309.76 99.92 313.678 99.92 318.511V329.383H78.696V318.511Z" fill="#CD2026"/>
<path d="M125.156 318.511C125.156 313.678 129.074 309.76 133.907 309.76H137.628C142.461 309.76 146.379 313.678 146.379 318.511V329.383H125.156V318.511Z" fill="#CD2026"/>
<path d="M171.613 318.511C171.613 313.678 175.531 309.76 180.365 309.76H184.086C188.919 309.76 192.837 313.678 192.837 318.511V329.383H171.613V318.511Z" fill="#CD2026"/>
<path d="M218.074 318.511C218.074 313.678 221.992 309.76 226.825 309.76H230.546C235.379 309.76 239.297 313.678 239.297 318.511V329.383H218.074V318.511Z" fill="#CD2026"/>
<path d="M264.533 318.511C264.533 313.678 268.451 309.76 273.284 309.76H277.005C281.838 309.76 285.756 313.678 285.756 318.511V329.383H264.533V318.511Z" fill="#CD2026"/>
<path d="M310.992 318.511C310.992 313.678 314.91 309.76 319.744 309.76H323.464C328.298 309.76 332.216 313.678 332.216 318.511V329.383H310.992V318.511Z" fill="#CD2026"/>
<path d="M357.451 318.511C357.451 313.678 361.369 309.76 366.202 309.76H369.923C374.756 309.76 378.674 313.678 378.674 318.511V329.383H357.451V318.511Z" fill="#CD2026"/>
<path d="M403.909 318.511C403.909 313.678 407.827 309.76 412.661 309.76H416.381C421.215 309.76 425.133 313.678 425.133 318.511V329.383H403.909V318.511Z" fill="#CD2026"/>
<path d="M450.369 318.511C450.369 313.678 454.287 309.76 459.12 309.76H462.841C467.675 309.76 471.593 313.678 471.593 318.511V329.383H450.369V318.511Z" fill="#CD2026"/>
<path fill-rule="evenodd" clip-rule="evenodd" d="M1020.31 290H585V402.122H597.163V372.111C597.163 367.278 601.081 363.36 605.914 363.36H609.635C614.468 363.36 618.387 367.278 618.387 372.111V402.122H643.622V372.111C643.622 367.278 647.54 363.36 652.373 363.36H656.094C660.927 363.36 664.845 367.278 664.845 372.111V402.122H690.081V372.111C690.081 367.278 693.999 363.36 698.832 363.36H702.553C707.386 363.36 711.304 367.278 711.304 372.111V402.122H736.54V372.111C736.54 367.278 740.458 363.36 745.291 363.36H749.012C753.846 363.36 757.764 367.278 757.764 372.111V402.122H783V372.111C783 367.278 786.92 363.36 791.75 363.36H795.47C800.3 363.36 804.22 367.278 804.22 372.111V402.122H829.46V372.111C829.46 367.278 833.38 363.36 838.21 363.36H841.93C846.76 363.36 850.68 367.278 850.68 372.111V402.122H875.92V372.111C875.92 367.278 879.84 363.36 884.67 363.36H888.39C893.22 363.36 897.14 367.278 897.14 372.111V402.122H922.38V372.111C922.38 367.278 926.29 363.36 931.13 363.36H934.85C939.68 363.36 943.6 367.278 943.6 372.111V402.122H968.84V372.111C968.84 367.278 972.75 363.36 977.59 363.36H981.31C986.14 363.36 990.06 367.278 990.06 372.111V402.122H1020.31V290Z" fill="#A70B11"/>
<path d="M1020.31 342.363H585V346.057H1020.31V342.363Z" fill="#BABABA"/>
<path d="M597.164 318.511C597.164 313.678 601.082 309.76 605.915 309.76H609.636C614.47 309.76 618.388 313.678 618.388 318.511V329.383H597.164V318.511Z" fill="#CD2026"/>
<path d="M643.624 318.511C643.624 313.678 647.542 309.76 652.375 309.76H656.096C660.929 309.76 664.847 313.678 664.847 318.511V329.383H643.624V318.511Z" fill="#CD2026"/>
<path d="M690.081 318.511C690.081 313.678 693.999 309.76 698.832 309.76H702.553C707.387 309.76 711.305 313.678 711.305 318.511V329.383H690.081V318.511Z" fill="#CD2026"/>
<path d="M736.542 318.511C736.542 313.678 740.46 309.76 745.293 309.76H749.014C753.847 309.76 757.765 313.678 757.765 318.511V329.383H736.542V318.511Z" fill="#CD2026"/>
<path d="M783 318.511C783 313.678 786.92 309.76 791.75 309.76H795.47C800.31 309.76 804.22 313.678 804.22 318.511V329.383H783V318.511Z" fill="#CD2026"/>
<path d="M829.46 318.511C829.46 313.678 833.38 309.76 838.21 309.76H841.93C846.77 309.76 850.68 313.678 850.68 318.511V329.383H829.46V318.511Z" fill="#CD2026"/>
<path d="M875.92 318.511C875.92 313.678 879.84 309.76 884.67 309.76H888.39C893.22 309.76 897.14 313.678 897.14 318.511V329.383H875.92V318.511Z" fill="#CD2026"/>
<path d="M922.38 318.511C922.38 313.678 926.3 309.76 931.13 309.76H934.85C939.68 309.76 943.6 313.678 943.6 318.511V329.383H922.38V318.511Z" fill="#CD2026"/>
<path d="M968.84 318.511C968.84 313.678 972.76 309.76 977.59 309.76H981.31C986.14 309.76 990.06 313.678 990.06 318.511V329.383H968.84V318.511Z" fill="#CD2026"/>
<path d="M67 268H502V290H57L67 268Z" fill="#FAFAFA"/>
<path d="M585.468 268H1020.47L1028.47 290H585.468V268Z" fill="#FAFAFA"/>
<path d="M526.5 94.5H534L544.5 78.5L554 94.5H561.5" stroke="#A70B11"/>
<path d="M32.8401 314.293V329.299V348.62" stroke="white"/>
</svg>
