<svg width="1044" height="464" viewBox="0 0 1044 464" fill="none" xmlns="http://www.w3.org/2000/svg">
<path fill-rule="evenodd" clip-rule="evenodd" d="M994.286 351.736H562.826V462.866H574.882V433.121C574.882 428.331 578.765 424.447 583.555 424.447H587.243C592.034 424.447 595.918 428.331 595.918 433.121V462.866H620.93V433.121C620.93 428.331 624.813 424.447 629.603 424.447H633.291C638.082 424.447 641.965 428.331 641.965 433.121V462.866H666.978V433.121C666.978 428.331 670.861 424.447 675.651 424.447H679.34C684.13 424.447 688.013 428.331 688.013 433.121V462.866H713.026V433.121C713.026 428.331 716.909 424.447 721.7 424.447H725.388C730.179 424.447 734.062 428.331 734.062 433.121V462.866H759.075V433.121C759.075 428.331 762.96 424.447 767.748 424.447H771.435C776.222 424.447 780.107 428.331 780.107 433.121V462.866H805.124V433.121C805.124 428.331 809.009 424.447 813.797 424.447H817.484C822.271 424.447 826.157 428.331 826.157 433.121V462.866H851.173V433.121C851.173 428.331 855.059 424.447 859.846 424.447H863.533C868.32 424.447 872.206 428.331 872.206 433.121V462.866H897.222V433.121C897.222 428.331 901.098 424.447 905.895 424.447H909.582C914.369 424.447 918.255 428.331 918.255 433.121V462.866H943.271V433.121C943.271 428.331 947.147 424.447 951.944 424.447H955.631C960.419 424.447 964.304 428.331 964.304 433.121V462.866H994.286V351.736Z" fill="#A70B11"/>
<path d="M563.29 329.93H994.445L1002.37 351.736H563.29V329.93Z" fill="#FAFAFA"/>
<path d="M66.4074 329.93H497.56V351.736H56.4958L66.4074 329.93Z" fill="#FAFAFA"/>
<path d="M14.22 463.081V360.656" stroke="#7D7D7D" stroke-width="0.991156" stroke-linejoin="round"/>
<path d="M0.676025 369.712H27.7633" stroke="#7D7D7D" stroke-width="0.991156" stroke-linejoin="round"/>
<path d="M99.7966 463.081V360.656" stroke="#7D7D7D" stroke-width="0.991156" stroke-linejoin="round"/>
<path d="M86.2515 369.712H113.34" stroke="#7D7D7D" stroke-width="0.991156" stroke-linejoin="round"/>
<path d="M14.1509 369.713C19.2246 383.141 71.4467 397.465 99.7967 369.713" stroke="#7D7D7D" stroke-width="0.991156" stroke-linejoin="round"/>
<path d="M22.7966 270.957V261.045" stroke="black" stroke-width="0.792925" stroke-linecap="round"/>
<path d="M42.6196 270.957V261.045" stroke="black" stroke-width="0.792925" stroke-linecap="round"/>
<path d="M42.6198 264.019H22.7966" stroke="black" stroke-width="0.792925" stroke-linecap="round"/>
<path d="M32.7083 264.514V254.603" stroke="black" stroke-width="0.792925" stroke-linecap="round"/>
<path d="M6.93799 320.019V326.461" stroke="white" stroke-width="0.991156" stroke-linecap="round"/>
<path d="M49.5579 320.019V326.461" stroke="white" stroke-width="0.991156" stroke-linecap="round"/>
<path d="M17.8408 320.019V326.461" stroke="white" stroke-width="0.991156" stroke-linecap="round"/>
<path d="M60.4604 320.019V326.461" stroke="white" stroke-width="0.991156" stroke-linecap="round"/>
<path fill-rule="evenodd" clip-rule="evenodd" d="M0.633223 318.619L21.7121 272.035C21.8727 271.68 22.2255 271.452 22.6151 271.452H42.801C43.1905 271.452 43.5433 271.68 43.7039 272.035L64.7828 318.619C65.0792 319.276 64.5995 320.019 63.8799 320.019H39.5153C37.9017 317.824 35.3009 316.399 32.3671 316.399C29.4332 316.399 26.8324 317.824 25.2178 320.019H1.53616C0.815591 320.019 0.335876 319.276 0.633223 318.619Z" fill="white"/>
<path d="M39.5154 320.019L39.116 320.312L39.2647 320.515H39.5154V320.019ZM25.218 320.019V320.515H25.4688L25.6174 320.312L25.218 320.019ZM21.2603 271.831L0.181398 318.415L1.08434 318.824L22.1633 272.239L21.2603 271.831ZM22.6152 270.957C22.0314 270.957 21.5012 271.299 21.2603 271.831L22.1633 272.239C22.2435 272.062 22.421 271.948 22.6152 271.948V270.957ZM42.8011 270.957H22.6152V271.948H42.8011V270.957ZM44.155 271.831C43.9152 271.299 43.3849 270.957 42.8011 270.957V271.948C42.9954 271.948 43.1718 272.062 43.2521 272.239L44.155 271.831ZM65.234 318.415L44.155 271.831L43.2521 272.239L64.331 318.824L65.234 318.415ZM63.88 320.515C64.9604 320.515 65.68 319.399 65.234 318.415L64.331 318.824C64.4797 319.152 64.2398 319.523 63.88 319.523V320.515ZM39.5154 320.515H63.88V319.523H39.5154V320.515ZM32.3672 316.895C35.1365 316.895 37.5916 318.239 39.116 320.312L39.9149 319.726C38.2121 317.408 35.4646 315.904 32.3672 315.904V316.895ZM25.6174 320.312C27.1418 318.239 29.5979 316.895 32.3672 316.895V315.904C29.2689 315.904 26.5224 317.408 24.8186 319.726L25.6174 320.312ZM1.53631 320.515H25.218V319.523H1.53631V320.515ZM0.181398 318.415C-0.263631 319.399 0.455953 320.515 1.53631 320.515V319.523C1.17652 319.523 0.936655 319.152 1.08434 318.824L0.181398 318.415Z" fill="#1F1F1F"/>
<path fill-rule="evenodd" clip-rule="evenodd" d="M66.0169 319.477H0V462.747H66.0169V319.477ZM32.7081 425.082C23.4022 425.082 15.8585 432.625 15.8585 441.931V462.745H49.5578V441.931C49.5578 432.625 42.0141 425.082 32.7081 425.082Z" fill="#CD2026"/>
<path d="M21.8054 370.442C21.8054 367.475 24.211 365.07 27.1775 365.07C30.144 365.07 32.5495 367.475 32.5495 370.442V409.837H21.8054V370.442Z" fill="#A70B11"/>
<path d="M32.5496 370.442C32.5496 367.475 34.9541 365.07 37.9216 365.07C40.8882 365.07 43.2937 367.475 43.2937 370.442V409.837H32.5496V370.442Z" fill="#A70B11"/>
<path d="M21.8054 379.586V369.994C21.8054 367.027 24.211 364.622 27.1775 364.622C30.144 364.622 32.5495 367.027 32.5495 369.994V379.608" stroke="white" stroke-width="0.991156"/>
<path d="M43.2937 379.25V369.994C43.2937 367.027 40.8882 364.622 37.9216 364.622C34.9541 364.622 32.5496 367.027 32.5496 369.994V379.608" stroke="white" stroke-width="0.991156"/>
<path d="M45.5931 399.807H20.8142C20.5405 399.807 20.3186 400.029 20.3186 400.303V409.223C20.3186 409.497 20.5405 409.719 20.8142 409.719H45.5931C45.8668 409.719 46.0887 409.497 46.0887 409.223V400.303C46.0887 400.029 45.8668 399.807 45.5931 399.807Z" stroke="white" stroke-width="0.991156" stroke-linejoin="round"/>
<path d="M24.2834 399.807H28.248V409.719H24.2834V399.807Z" stroke="white" stroke-width="0.991156"/>
<path d="M32.2126 399.807H36.1772V409.719H32.2126V399.807Z" stroke="white" stroke-width="0.991156"/>
<path d="M41.6287 399.807H45.5933C45.867 399.807 46.0889 400.029 46.0889 400.303V409.223C46.0889 409.497 45.867 409.719 45.5933 409.719H41.6287C41.355 409.719 41.1331 409.497 41.1331 409.223V400.303C41.1331 400.029 41.355 399.807 41.6287 399.807Z" stroke="white" stroke-width="0.991156"/>
<path d="M30.7258 357.243C31.0559 356.912 31.6526 355.327 32.2126 354.766C32.7072 354.269 33.2007 357.228 33.6953 357.243C33.7518 357.243 33.7588 357.244 33.6993 357.244C33.6983 357.244 33.6963 357.243 33.6953 357.243C33.3732 357.243 31.4286 357.243 30.7258 357.243Z" fill="white"/>
<path d="M20.8142 380.038V369.631C20.8142 363.335 25.9177 358.233 32.2125 358.233C38.5073 358.233 43.6108 363.335 43.6108 369.631V380.038" stroke="white" stroke-width="2.97347" stroke-linejoin="round"/>
<path d="M23.7878 309.325C23.7878 304.283 27.8754 300.196 32.9174 300.196H33.4903C38.5323 300.196 42.6198 304.283 42.6198 309.325V327.948H23.7878V309.325Z" fill="#1F1F1F"/>
<path d="M24.7788 309.612C24.7788 304.959 28.5511 301.187 33.2036 301.187C37.8561 301.187 41.6285 304.959 41.6285 309.612V326.957H24.7788V309.612Z" fill="white"/>
<path fill-rule="evenodd" clip-rule="evenodd" d="M497.4 351.736H65.9436V462.866H77.999V433.121C77.999 428.331 81.8824 424.447 86.6736 424.447H90.3607C95.152 424.447 99.0353 428.331 99.0353 433.121V462.866H124.047V433.121C124.047 428.331 127.93 424.447 132.721 424.447H136.409C141.199 424.447 145.082 428.331 145.082 433.121V462.866H170.095V433.121C170.095 428.331 173.979 424.447 178.769 424.447H182.457C187.248 424.447 191.132 428.331 191.132 433.121V462.866H216.143V433.121C216.143 428.331 220.027 424.447 224.818 424.447H228.506C233.296 424.447 237.18 428.331 237.18 433.121V462.866H262.191V433.121C262.191 428.331 266.075 424.447 270.865 424.447H274.553C279.343 424.447 283.228 428.331 283.228 433.121V462.866H308.24V433.121C308.24 428.331 312.123 424.447 316.914 424.447H320.601C325.393 424.447 329.276 428.331 329.276 433.121V462.866H354.289V433.121C354.289 428.331 358.172 424.447 362.962 424.447H366.65C371.441 424.447 375.324 428.331 375.324 433.121V462.866H400.337V433.121C400.337 428.331 404.22 424.447 409.01 424.447H412.699C417.489 424.447 421.372 428.331 421.372 433.121V462.866H446.386V433.121C446.386 428.331 450.269 424.447 455.06 424.447H458.748C463.538 424.447 467.421 428.331 467.421 433.121V462.866H497.4V351.736Z" fill="#A70B11"/>
<path d="M482 404H66V407H482V404Z" fill="white"/>
<path d="M78 379.995C78 375.204 81.8833 371.321 86.6746 371.321H90.3627C95.1529 371.321 99.0363 375.204 99.0363 379.995V390.771H78V379.995Z" fill="#CD2026"/>
<path d="M124.049 379.995C124.049 375.204 127.932 371.321 132.723 371.321H136.411C141.201 371.321 145.084 375.204 145.084 379.995V390.771H124.049V379.995Z" fill="#CD2026"/>
<path d="M170.095 379.995C170.095 375.204 173.979 371.321 178.77 371.321H182.458C187.248 371.321 191.132 375.204 191.132 379.995V390.771H170.095V379.995Z" fill="#CD2026"/>
<path d="M216.145 379.995C216.145 375.204 220.029 371.321 224.819 371.321H228.507C233.297 371.321 237.181 375.204 237.181 379.995V390.771H216.145V379.995Z" fill="#CD2026"/>
<path d="M262.193 379.995C262.193 375.204 266.077 371.321 270.867 371.321H274.555C279.345 371.321 283.229 375.204 283.229 379.995V390.771H262.193V379.995Z" fill="#CD2026"/>
<path d="M308.241 379.995C308.241 375.204 312.125 371.321 316.916 371.321H320.603C325.394 371.321 329.278 375.204 329.278 379.995V390.771H308.241V379.995Z" fill="#CD2026"/>
<path d="M354.29 379.995C354.29 375.204 358.173 371.321 362.963 371.321H366.651C371.441 371.321 375.325 375.204 375.325 379.995V390.771H354.29V379.995Z" fill="#CD2026"/>
<path d="M400.337 379.995C400.337 375.204 404.22 371.321 409.011 371.321H412.698C417.49 371.321 421.373 375.204 421.373 379.995V390.771H400.337V379.995Z" fill="#CD2026"/>
<path d="M446.386 379.995C446.386 375.204 450.269 371.321 455.06 371.321H458.748C463.539 371.321 467.422 375.204 467.422 379.995V390.771H446.386V379.995Z" fill="#CD2026"/>
<path d="M32.5496 375.814V390.687V409.837" stroke="white" stroke-width="0.991156"/>
<path d="M1000.92 320.019V326.461" stroke="white" stroke-width="0.991156" stroke-linecap="round"/>
<path d="M1011.82 320.019V326.461" stroke="white" stroke-width="0.991156" stroke-linecap="round"/>
<path d="M511.981 1L481 66H562L531.019 1H511.981Z" fill="white" stroke="#1F1F1F" stroke-width="0.991156"/>
<path fill-rule="evenodd" clip-rule="evenodd" d="M564.2 67H481V463H503.053V433V403.797C503.053 390.719 512.258 380 522.105 380C531.951 380 540.924 390.719 540.924 403.797V433V463H564.2V67Z" fill="#CD2026"/>
<path d="M512.492 60.937H505V88H539V60.937H531.797L522.289 45L512.492 60.937Z" fill="#CD2026" stroke="#A70B11" stroke-width="0.991156"/>
<path d="M522 83C527.523 83 532 78.5228 532 73C532 67.4772 527.523 63 522 63C516.477 63 512 67.4772 512 73C512 78.5228 516.477 83 522 83Z" fill="white"/>
<path d="M540 87H504V90H540V87Z" fill="white"/>
<path d="M499 143V132.5C499 126.149 504.149 121 510.5 121C516.851 121 522 126.149 522 132.5V143" stroke="white" stroke-width="2.97347" stroke-linejoin="round"/>
<path d="M544 144V133.5C544 127.149 539.075 122 533 122C526.925 122 522 127.149 522 133.5V144" stroke="white" stroke-width="2.97347" stroke-linejoin="round"/>
<path d="M530 90H513V98.958L517.463 102.105V113H525.75V102.105L530 98.958V90Z" fill="#A70B11"/>
<path fill-rule="evenodd" clip-rule="evenodd" d="M519 112H524V115H523V124H524V127H519V124H520V115H519V112Z" fill="#EBEBEB"/>
<path d="M500 133.4C500 130.418 502.463 128 505.5 128C508.537 128 511 130.418 511 133.4V173H500V133.4Z" fill="#A70B11"/>
<path d="M511 133.4C511 130.418 513.238 128 516 128C518.761 128 521 130.418 521 133.4V173H511V133.4Z" fill="#A70B11"/>
<path d="M500 143V133.377C500 130.408 502.463 128 505.5 128C508.537 128 511 130.408 511 133.377V143" stroke="white" stroke-width="0.991156"/>
<path d="M521 144V134.329C521 131.385 518.761 129 516 129C513.238 129 511 131.385 511 134.329V143.864" stroke="white" stroke-width="0.991156"/>
<path d="M511 139V153.863V173" stroke="white" stroke-width="0.991156"/>
<path d="M523 133.4C523 130.418 525.239 128 528 128C530.761 128 533 130.418 533 133.4V173H523V133.4Z" fill="#A70B11"/>
<path d="M533 133.4C533 130.418 535.462 128 538.5 128C541.537 128 544 130.418 544 133.4V173H533V133.4Z" fill="#A70B11"/>
<path d="M523 144V133.595C523 130.505 525.239 128 528 128C530.761 128 533 130.505 533 133.595V143.608" stroke="white" stroke-width="0.991156"/>
<path d="M544 144V134.364C544 131.402 541.537 129 538.5 129C535.462 129 533 131.402 533 134.364V143.964" stroke="white" stroke-width="0.991156"/>
<path d="M533 139V153.863V173" stroke="white" stroke-width="0.991156"/>
<path d="M545.5 164H498.5C498.224 164 498 164.224 498 164.5V172.5C498 172.776 498.224 173 498.5 173H545.5C545.776 173 546 172.776 546 172.5V164.5C546 164.224 545.776 164 545.5 164Z" stroke="white" stroke-width="0.991156" stroke-linejoin="round"/>
<path d="M501.5 164H498.5C498.224 164 498 164.224 498 164.5V172.5C498 172.776 498.224 173 498.5 173H501.5C501.776 173 502 172.776 502 172.5V164.5C502 164.224 501.776 164 501.5 164Z" stroke="white" stroke-width="0.991156"/>
<path d="M502 164H506V173H502V164Z" stroke="white" stroke-width="0.991156"/>
<path d="M511 164H515V173H511V164Z" stroke="white" stroke-width="0.991156"/>
<path d="M506 174V178" stroke="white" stroke-width="0.991156" stroke-linecap="round"/>
<path d="M514 174V178" stroke="white" stroke-width="0.991156" stroke-linecap="round"/>
<path d="M523 174V178" stroke="white" stroke-width="0.991156" stroke-linecap="round"/>
<path d="M531 174V178" stroke="white" stroke-width="0.991156" stroke-linecap="round"/>
<path d="M539 174V178" stroke="white" stroke-width="0.991156" stroke-linecap="round"/>
<path d="M519 164H523V173H519V164Z" stroke="white" stroke-width="0.991156"/>
<path d="M529 164H533V173H529V164Z" stroke="white" stroke-width="0.991156"/>
<path d="M499 242V231.5C499 225.149 504.149 220 510.5 220C516.851 220 522 225.149 522 231.5V242" stroke="white" stroke-width="2.97347" stroke-linejoin="round"/>
<path d="M544 243V232.5C544 226.149 539.075 221 533 221C526.925 221 522 226.149 522 232.5V243" stroke="white" stroke-width="2.97347" stroke-linejoin="round"/>
<path d="M500 232.4C500 229.418 502.463 227 505.5 227C508.537 227 511 229.418 511 232.4V272H500V232.4Z" fill="#A70B11"/>
<path d="M511 232.4C511 229.418 513.238 227 516 227C518.761 227 521 229.418 521 232.4V272H511V232.4Z" fill="#A70B11"/>
<path d="M500 242V232.377C500 229.408 502.463 227 505.5 227C508.537 227 511 229.408 511 232.377V242" stroke="white" stroke-width="0.991156"/>
<path d="M521 243V233.329C521 230.385 518.761 228 516 228C513.238 228 511 230.385 511 233.329V242.864" stroke="white" stroke-width="0.991156"/>
<path d="M511 238V252.863V272" stroke="white" stroke-width="0.991156"/>
<path d="M523 232.4C523 229.418 525.239 227 528 227C530.761 227 533 229.418 533 232.4V272H523V232.4Z" fill="#A70B11"/>
<path d="M533 232.4C533 229.418 535.462 227 538.5 227C541.537 227 544 229.418 544 232.4V272H533V232.4Z" fill="#A70B11"/>
<path d="M523 243V232.595C523 229.505 525.239 227 528 227C530.761 227 533 229.505 533 232.595V242.608" stroke="white" stroke-width="0.991156"/>
<path d="M544 243V233.364C544 230.402 541.537 228 538.5 228C535.462 228 533 230.402 533 233.364V242.964" stroke="white" stroke-width="0.991156"/>
<path d="M533 238V252.863V272" stroke="white" stroke-width="0.991156"/>
<path d="M545.5 263H498.5C498.224 263 498 263.224 498 263.5V271.5C498 271.776 498.224 272 498.5 272H545.5C545.776 272 546 271.776 546 271.5V263.5C546 263.224 545.776 263 545.5 263Z" stroke="white" stroke-width="0.991156" stroke-linejoin="round"/>
<path d="M502 263H506V272H502V263Z" stroke="white" stroke-width="0.991156"/>
<path d="M511 263H515V272H511V263Z" stroke="white" stroke-width="0.991156"/>
<path d="M519 263H523V272H519V263Z" stroke="white" stroke-width="0.991156"/>
<path d="M529 263H533V272H529V263Z" stroke="white" stroke-width="0.991156"/>
<path d="M538 263H542V272H538V263Z" stroke="white" stroke-width="0.991156"/>
<path d="M509 218.999C509.328 218.739 509.922 217.488 510.479 217.044C510.971 216.652 511.463 218.988 511.955 219C512.011 219 512.018 219 511.959 219C511.958 219 511.956 219 511.955 219C511.634 219 509.699 218.999 509 218.999Z" fill="white"/>
<path d="M532 219.999C532.328 219.607 532.922 217.731 533.479 217.067C533.971 216.479 534.463 219.981 534.955 219.999C535.011 219.999 535.018 220 534.959 220C534.958 220 534.956 219.999 534.955 219.999C534.634 219.999 532.699 219.999 532 219.999Z" fill="white"/>
<path d="M522 74V69" stroke="#1F1F1F" stroke-width="0.991156" stroke-linecap="round"/>
<path d="M524 74H522" stroke="#1F1F1F" stroke-width="0.991156" stroke-linecap="round"/>
<path d="M994 404H564V407H994V404Z" fill="white"/>
<path d="M574.883 379.995C574.883 375.204 578.766 371.321 583.556 371.321H587.244C592.036 371.321 595.919 375.204 595.919 379.995V390.771H574.883V379.995Z" fill="#CD2026"/>
<path d="M620.932 379.995C620.932 375.204 624.815 371.321 629.605 371.321H633.294C638.084 371.321 641.967 375.204 641.967 379.995V390.771H620.932V379.995Z" fill="#CD2026"/>
<path d="M666.978 379.995C666.978 375.204 670.861 371.321 675.652 371.321H679.34C684.131 371.321 688.014 375.204 688.014 379.995V390.771H666.978V379.995Z" fill="#CD2026"/>
<path d="M713.028 379.995C713.028 375.204 716.911 371.321 721.702 371.321H725.39C730.18 371.321 734.063 375.204 734.063 379.995V390.771H713.028V379.995Z" fill="#CD2026"/>
<path d="M759.075 379.995C759.075 375.204 762.961 371.321 767.748 371.321H771.435C776.232 371.321 780.107 375.204 780.107 379.995V390.771H759.075V379.995Z" fill="#CD2026"/>
<path d="M805.124 379.995C805.124 375.204 809.01 371.321 813.797 371.321H817.484C822.281 371.321 826.157 375.204 826.157 379.995V390.771H805.124V379.995Z" fill="#CD2026"/>
<path d="M851.173 379.995C851.173 375.204 855.059 371.321 859.846 371.321H863.533C868.32 371.321 872.206 375.204 872.206 379.995V390.771H851.173V379.995Z" fill="#CD2026"/>
<path d="M897.222 379.995C897.222 375.204 901.108 371.321 905.895 371.321H909.582C914.369 371.321 918.255 375.204 918.255 379.995V390.771H897.222V379.995Z" fill="#CD2026"/>
<path d="M943.271 379.995C943.271 375.204 947.157 371.321 951.944 371.321H955.631C960.419 371.321 964.304 375.204 964.304 379.995V390.771H943.271V379.995Z" fill="#CD2026"/>
<path d="M505 61H512.286L522.486 45L531.714 61H539" stroke="#A70B11" stroke-width="0.991156"/>
<path d="M1000.78 270.957V261.045" stroke="black" stroke-width="0.792925" stroke-linecap="round"/>
<path d="M1020.6 270.957V261.045" stroke="black" stroke-width="0.792925" stroke-linecap="round"/>
<path d="M1020.6 264.019H1000.78" stroke="black" stroke-width="0.792925" stroke-linecap="round"/>
<path d="M1010.69 264.514V254.603" stroke="black" stroke-width="0.792925" stroke-linecap="round"/>
<path d="M1027.54 320.019V326.461" stroke="white" stroke-width="0.991156" stroke-linecap="round"/>
<path fill-rule="evenodd" clip-rule="evenodd" d="M978.613 318.619L999.695 272.035C999.854 271.68 1000.2 271.452 1000.6 271.452H1020.78C1021.17 271.452 1021.52 271.68 1021.68 272.035L1042.76 318.619C1043.06 319.276 1042.58 320.019 1041.86 320.019H1017.5C1015.88 317.824 1013.28 316.399 1010.35 316.399C1007.42 316.399 1004.81 317.824 1003.19 320.019H979.515C978.792 320.019 978.316 319.276 978.613 318.619Z" fill="white"/>
<path d="M1017.5 320.019L1017.1 320.312L1017.25 320.515H1017.5V320.019ZM1003.19 320.019V320.515H1003.45L1003.6 320.312L1003.19 320.019ZM999.239 271.831L978.158 318.415L979.059 318.824L1000.14 272.239L999.239 271.831ZM1000.6 270.957C1000.01 270.957 999.477 271.299 999.239 271.831L1000.14 272.239C1000.22 272.062 1000.4 271.948 1000.6 271.948V270.957ZM1020.78 270.957H1000.6V271.948H1020.78V270.957ZM1022.14 271.831C1021.9 271.299 1021.36 270.957 1020.78 270.957V271.948C1020.98 271.948 1021.15 272.062 1021.23 272.239L1022.14 271.831ZM1043.22 318.415L1022.14 271.831L1021.23 272.239L1042.32 318.824L1043.22 318.415ZM1041.86 320.515C1042.94 320.515 1043.66 319.399 1043.22 318.415L1042.32 318.824C1042.46 319.152 1042.22 319.523 1041.86 319.523V320.515ZM1017.5 320.515H1041.86V319.523H1017.5V320.515ZM1010.35 316.895C1013.12 316.895 1015.57 318.239 1017.1 320.312L1017.89 319.726C1016.19 317.408 1013.44 315.904 1010.35 315.904V316.895ZM1003.6 320.312C1005.12 318.239 1007.58 316.895 1010.35 316.895V315.904C1007.25 315.904 1004.5 317.408 1002.8 319.726L1003.6 320.312ZM979.515 320.515H1003.19V319.523H979.515V320.515ZM978.158 318.415C977.712 319.399 978.435 320.515 979.515 320.515V319.523C979.159 319.523 978.911 319.152 979.059 318.824L978.158 318.415Z" fill="#1F1F1F"/>
<path fill-rule="evenodd" clip-rule="evenodd" d="M1044 319.477H977.979V462.747H1044V319.477ZM1010.69 425.082C1001.38 425.082 993.838 432.625 993.838 441.931V462.745H1027.54V441.931C1027.54 432.625 1019.99 425.082 1010.69 425.082Z" fill="#CD2026"/>
<path d="M999.785 370.442C999.785 367.475 1002.19 365.07 1005.16 365.07C1008.12 365.07 1010.53 367.475 1010.53 370.442V409.837H999.785V370.442Z" fill="#A70B11"/>
<path d="M1010.53 370.442C1010.53 367.475 1012.94 365.07 1015.9 365.07C1018.86 365.07 1021.27 367.475 1021.27 370.442V409.837H1010.53V370.442Z" fill="#A70B11"/>
<path d="M999.785 379.586V369.994C999.785 367.027 1002.19 364.622 1005.16 364.622C1008.12 364.622 1010.53 367.027 1010.53 369.994V379.608" stroke="white" stroke-width="0.991156"/>
<path d="M1021.27 379.25V369.994C1021.27 367.027 1018.86 364.622 1015.9 364.622C1012.94 364.622 1010.53 367.027 1010.53 369.994V379.608" stroke="white" stroke-width="0.991156"/>
<path d="M1023.57 399.807H998.793C998.52 399.807 998.298 400.029 998.298 400.303V409.223C998.298 409.497 998.52 409.719 998.793 409.719H1023.57C1023.85 409.719 1024.07 409.497 1024.07 409.223V400.303C1024.07 400.029 1023.85 399.807 1023.57 399.807Z" stroke="white" stroke-width="0.991156" stroke-linejoin="round"/>
<path d="M1002.26 399.807H1006.23V409.719H1002.26V399.807Z" stroke="white" stroke-width="0.991156"/>
<path d="M1010.19 399.807H1014.16V409.719H1010.19V399.807Z" stroke="white" stroke-width="0.991156"/>
<path d="M1019.61 399.807H1023.57C1023.85 399.807 1024.07 400.029 1024.07 400.303V409.223C1024.07 409.497 1023.85 409.719 1023.57 409.719H1019.61C1019.33 409.719 1019.11 409.497 1019.11 409.223V400.303C1019.11 400.029 1019.33 399.807 1019.61 399.807Z" stroke="white" stroke-width="0.991156"/>
<path d="M1008.71 357.243C1009.03 356.912 1009.64 355.327 1010.19 354.766C1010.69 354.269 1011.18 357.228 1011.68 357.243C1011.73 357.243 1011.74 357.244 1011.68 357.244V357.243C1011.35 357.243 1009.41 357.243 1008.71 357.243Z" fill="white"/>
<path d="M998.793 380.038V369.631C998.793 363.335 1003.9 358.233 1010.19 358.233C1016.49 358.233 1021.59 363.335 1021.59 369.631V380.038" stroke="white" stroke-width="2.97347" stroke-linejoin="round"/>
<path d="M1001.77 309.325C1001.77 304.283 1005.85 300.196 1010.9 300.196H1011.47C1016.52 300.196 1020.6 304.283 1020.6 309.325V327.948H1001.77V309.325Z" fill="#1F1F1F"/>
<path d="M1002.76 309.612C1002.76 304.959 1006.53 301.187 1011.18 301.187C1015.83 301.187 1019.61 304.959 1019.61 309.612V326.957H1002.76V309.612Z" fill="white"/>
</svg>
